HIERARCHY
ROOT newVegas:Hips
{
	OFFSET 0.000000 96.479958 0.000000
	CHANNELS 6 Xposition Yposition Zposition Xrotation Yrotation Zrotation
	JOINT newVegas:Pelvis
	{
		OFFSET 0.000000 0.000000 0.000000
		CHANNELS 3 Xrotation Yrotation Zrotation
		JOINT newVegas:LeftUpLeg
		{
			OFFSET 18.735201 -5.666702 -4.541200
			CHANNELS 3 Xrotation Yrotation Zrotation
			JOINT newVegas:LeftLeg
			{
				OFFSET -0.021200 -31.938179 0.493100
				CHANNELS 3 Xrotation Yrotation Zrotation
				JOINT newVegas:LeftFoot
				{
					OFFSET 0.021200 -31.938179 -4.336299
					CHANNELS 3 Xrotation Yrotation Zrotation
					JOINT newVegas:LeftToeBase
					{
						OFFSET 0.943001 -26.722000 15.023500
						CHANNELS 3 Xrotation Yrotation Zrotation
						End Site
						{
							OFFSET 0.000000 30.670183 0.000000
						}
					}
				}
				JOINT newVegas:Left_PantLeg
				{
					OFFSET 0.663870 -9.044666 -1.108900
					CHANNELS 3 Xrotation Yrotation Zrotation
					End Site
					{
						OFFSET 1.415995 20.635357 0.000000
					}
				}
			}
		}
		JOINT newVegas:RightUpLeg
		{
			OFFSET -18.735201 -5.666702 -4.541200
			CHANNELS 3 Xrotation Yrotation Zrotation
			JOINT newVegas:RightLeg
			{
				OFFSET 0.018946 -31.938133 0.493100
				CHANNELS 3 Xrotation Yrotation Zrotation
				JOINT newVegas:RightFoot
				{
					OFFSET -0.018946 -31.938126 -4.336299
					CHANNELS 3 Xrotation Yrotation Zrotation
					JOINT newVegas:RightToeBase
					{
						OFFSET -0.943001 -26.722004 15.023500
						CHANNELS 3 Xrotation Yrotation Zrotation
						End Site
						{
							OFFSET 0.000000 30.670187 0.000000
						}
					}
				}
				JOINT newVegas:Right_PantLeg
				{
					OFFSET -0.661674 -9.044716 -1.108900
					CHANNELS 3 Xrotation Yrotation Zrotation
					End Site
					{
						OFFSET -1.415958 20.635269 0.000000
					}
				}
			}
		}
	}
	JOINT newVegas:Spine
	{
		OFFSET 0.000000 10.199997 -0.299500
		CHANNELS 3 Xrotation Yrotation Zrotation
		JOINT newVegas:Spine1
		{
			OFFSET 0.000000 11.900002 -1.516600
			CHANNELS 3 Xrotation Yrotation Zrotation
			JOINT newVegas:Spine2
			{
				OFFSET 0.000000 13.600006 -2.842500
				CHANNELS 3 Xrotation Yrotation Zrotation
				JOINT newVegas:Neck
				{
					OFFSET 0.000000 9.624100 -2.890100
					CHANNELS 3 Xrotation Yrotation Zrotation
					JOINT newVegas:Head
					{
						OFFSET 0.000000 14.068802 -1.351900
						CHANNELS 3 Xrotation Yrotation Zrotation
						JOINT newVegas:Hair_Back
						{
							OFFSET 0.000000 3.231903 -17.524799
							CHANNELS 3 Xrotation Yrotation Zrotation
							End Site
							{
								OFFSET 0.000000 19.849884 0.000000
							}
						}
						JOINT newVegas:Hair_Front
						{
							OFFSET 0.000000 31.260406 4.573800
							CHANNELS 3 Xrotation Yrotation Zrotation
							JOINT newVegas:Hair_Front1
							{
								OFFSET 0.000000 2.284103 11.993300
								CHANNELS 3 Xrotation Yrotation Zrotation
								JOINT newVegas:Hair_Front2
								{
									OFFSET 0.000000 2.284103 11.993300
									CHANNELS 3 Xrotation Yrotation Zrotation
									End Site
									{
										OFFSET 0.000000 12.208862 0.000000
									}
								}
							}
						}
						JOINT newVegas:Jowel
						{
							OFFSET 0.000000 -7.458206 6.864100
							CHANNELS 3 Xrotation Yrotation Zrotation
							End Site
							{
								OFFSET 0.000000 19.849884 0.000000
							}
						}
					}
				}
				JOINT newVegas:LeftShoulder
				{
					OFFSET 15.263000 10.923401 -0.547700
					CHANNELS 3 Xrotation Yrotation Zrotation
					JOINT newVegas:LeftArm
					{
						OFFSET 25.438599 -2.830597 -13.032500
						CHANNELS 3 Xrotation Yrotation Zrotation
						JOINT newVegas:LeftForeArm
						{
							OFFSET 29.960503 0.000000 0.000000
							CHANNELS 3 Xrotation Yrotation Zrotation
							JOINT newVegas:LeftHand
							{
								OFFSET 27.849251 0.000000 0.000000
								CHANNELS 3 Xrotation Yrotation Zrotation
								JOINT newVegas:LeftHandThumb1
								{
									OFFSET 4.487587 -3.305161 6.305391
									CHANNELS 3 Xrotation Yrotation Zrotation
									JOINT newVegas:LeftHandThumb2
									{
										OFFSET 5.480453 -3.164139 3.164143
										CHANNELS 3 Xrotation Yrotation Zrotation
										JOINT newVegas:LeftHandThumb3
										{
											OFFSET 5.159721 -2.978973 2.978967
											CHANNELS 3 Xrotation Yrotation Zrotation
											End Site
											{
												OFFSET 2.494507 5.926697 1.738678
											}
										}
									}
								}
								JOINT newVegas:LeftHandIndex1
								{
									OFFSET 18.578728 -0.527832 5.208049
									CHANNELS 3 Xrotation Yrotation Zrotation
									JOINT newVegas:LeftHandIndex2
									{
										OFFSET 3.192009 0.000000 0.000000
										CHANNELS 3 Xrotation Yrotation Zrotation
										JOINT newVegas:LeftHandIndex3
										{
											OFFSET 3.835129 0.000000 0.000000
											CHANNELS 3 Xrotation Yrotation Zrotation
											End Site
											{
												OFFSET -0.034599 3.816971 0.371180
											}
										}
									}
								}
								JOINT newVegas:LeftHandMiddle1
								{
									OFFSET 18.476105 0.000000 0.000000
									CHANNELS 3 Xrotation Yrotation Zrotation
									JOINT newVegas:LeftHandMiddle2
									{
										OFFSET 3.324875 0.000000 0.000000
										CHANNELS 3 Xrotation Yrotation Zrotation
										JOINT newVegas:LeftHandMiddle3
										{
											OFFSET 4.596550 0.000000 0.000000
											CHANNELS 3 Xrotation Yrotation Zrotation
											End Site
											{
												OFFSET 0.057701 4.578827 0.399218
											}
										}
									}
								}
								JOINT newVegas:LeftHandRing1
								{
									OFFSET 17.732719 0.121887 -4.201567
									CHANNELS 3 Xrotation Yrotation Zrotation
									JOINT newVegas:LeftHandRing2
									{
										OFFSET 2.733170 0.000000 0.000000
										CHANNELS 3 Xrotation Yrotation Zrotation
										JOINT newVegas:LeftHandRing3
										{
											OFFSET 3.178268 0.000000 0.000000
											CHANNELS 3 Xrotation Yrotation Zrotation
											End Site
											{
												OFFSET 0.119102 3.170624 0.185394
											}
										}
									}
								}
								JOINT newVegas:LeftHandPinky1
								{
									OFFSET 15.989624 -0.606689 -7.535461
									CHANNELS 3 Xrotation Yrotation Zrotation
									JOINT newVegas:LeftHandPinky2
									{
										OFFSET 2.538986 0.000000 0.000000
										CHANNELS 3 Xrotation Yrotation Zrotation
										JOINT newVegas:LeftHandPinky3
										{
											OFFSET 2.593102 0.000000 0.000000
											CHANNELS 3 Xrotation Yrotation Zrotation
											End Site
											{
												OFFSET -0.150902 2.584198 0.152708
											}
										}
									}
								}
							}
							JOINT newVegas:Left_Sleeve
							{
								OFFSET 0.267448 -0.649796 0.577675
								CHANNELS 3 Xrotation Yrotation Zrotation
								End Site
								{
									OFFSET 0.000000 15.991241 0.000000
								}
							}
							JOINT newVegas:Left_CapeC
							{
								OFFSET 15.715958 -8.608795 -6.935905
								CHANNELS 3 Xrotation Yrotation Zrotation
								JOINT newVegas:Left_CapeC1
								{
									OFFSET 0.000000 -8.688499 0.000000
									CHANNELS 3 Xrotation Yrotation Zrotation
									End Site
									{
										OFFSET 0.000000 8.688499 0.000000
									}
								}
							}
						}
						JOINT newVegas:Left_CapeB
						{
							OFFSET 26.118385 -8.608795 -7.079235
							CHANNELS 3 Xrotation Yrotation Zrotation
							JOINT newVegas:Left_CapeB1
							{
								OFFSET 0.000000 -8.688499 0.000000
								CHANNELS 3 Xrotation Yrotation Zrotation
								End Site
								{
									OFFSET 0.000000 8.688499 0.000000
								}
							}
						}
						JOINT newVegas:Left_CapeA
						{
							OFFSET 5.115639 -8.608795 -10.395809
							CHANNELS 3 Xrotation Yrotation Zrotation
							JOINT newVegas:Left_CapeA1
							{
								OFFSET 0.000000 -8.688499 0.000000
								CHANNELS 3 Xrotation Yrotation Zrotation
								End Site
								{
									OFFSET 0.000000 8.688499 0.000000
								}
							}
						}
					}
				}
				JOINT newVegas:RightShoulder
				{
					OFFSET -15.263000 10.923401 -0.547700
					CHANNELS 3 Xrotation Yrotation Zrotation
					JOINT newVegas:RightArm
					{
						OFFSET -25.438599 -2.830597 -13.032500
						CHANNELS 3 Xrotation Yrotation Zrotation
						JOINT newVegas:RightForeArm
						{
							OFFSET -29.960503 0.000000 0.000000
							CHANNELS 3 Xrotation Yrotation Zrotation
							JOINT newVegas:RightHand
							{
								OFFSET -27.849251 0.000000 0.000000
								CHANNELS 3 Xrotation Yrotation Zrotation
								JOINT newVegas:RightHandThumb1
								{
									OFFSET -4.487587 -3.305161 6.305391
									CHANNELS 3 Xrotation Yrotation Zrotation
									JOINT newVegas:RightHandThumb2
									{
										OFFSET -5.480453 -3.164139 3.164143
										CHANNELS 3 Xrotation Yrotation Zrotation
										JOINT newVegas:RightHandThumb3
										{
											OFFSET -5.159721 -2.978973 2.978967
											CHANNELS 3 Xrotation Yrotation Zrotation
											End Site
											{
												OFFSET -2.494507 5.926697 1.738678
											}
										}
									}
								}
								JOINT newVegas:RightHandIndex1
								{
									OFFSET -18.578728 -0.527832 5.208049
									CHANNELS 3 Xrotation Yrotation Zrotation
									JOINT newVegas:RightHandIndex2
									{
										OFFSET -3.192009 0.000000 0.000000
										CHANNELS 3 Xrotation Yrotation Zrotation
										JOINT newVegas:RightHandIndex3
										{
											OFFSET -3.835129 0.000000 0.000000
											CHANNELS 3 Xrotation Yrotation Zrotation
											End Site
											{
												OFFSET 0.034599 3.816971 0.371180
											}
										}
									}
								}
								JOINT newVegas:RightHandMiddle1
								{
									OFFSET -18.476105 0.000000 0.000000
									CHANNELS 3 Xrotation Yrotation Zrotation
									JOINT newVegas:RightHandMiddle2
									{
										OFFSET -3.324875 0.000000 0.000000
										CHANNELS 3 Xrotation Yrotation Zrotation
										JOINT newVegas:RightHandMiddle3
										{
											OFFSET -4.596550 0.000000 0.000000
											CHANNELS 3 Xrotation Yrotation Zrotation
											End Site
											{
												OFFSET -0.057701 4.578827 0.399218
											}
										}
									}
								}
								JOINT newVegas:RightHandRing1
								{
									OFFSET -17.732719 0.121887 -4.201567
									CHANNELS 3 Xrotation Yrotation Zrotation
									JOINT newVegas:RightHandRing2
									{
										OFFSET -2.733170 0.000000 0.000000
										CHANNELS 3 Xrotation Yrotation Zrotation
										JOINT newVegas:RightHandRing3
										{
											OFFSET -3.178268 0.000000 0.000000
											CHANNELS 3 Xrotation Yrotation Zrotation
											End Site
											{
												OFFSET -0.119102 3.170624 0.185394
											}
										}
									}
								}
								JOINT newVegas:RightHandPinky1
								{
									OFFSET -15.989624 -0.606689 -7.535461
									CHANNELS 3 Xrotation Yrotation Zrotation
									JOINT newVegas:RightHandPinky2
									{
										OFFSET -2.538986 0.000000 0.000000
										CHANNELS 3 Xrotation Yrotation Zrotation
										JOINT newVegas:RightHandPinky3
										{
											OFFSET -2.593102 0.000000 0.000000
											CHANNELS 3 Xrotation Yrotation Zrotation
											End Site
											{
												OFFSET 0.150902 2.584198 0.152708
											}
										}
									}
								}
							}
							JOINT newVegas:Right_CapeC
							{
								OFFSET -15.715958 -8.608795 -6.935905
								CHANNELS 3 Xrotation Yrotation Zrotation
								JOINT newVegas:Right_CapeC1
								{
									OFFSET 0.000000 -8.688499 0.000000
									CHANNELS 3 Xrotation Yrotation Zrotation
									End Site
									{
										OFFSET 0.000000 8.688499 0.000000
									}
								}
							}
							JOINT newVegas:Right_Sleeve
							{
								OFFSET -0.267448 -0.649994 0.577675
								CHANNELS 3 Xrotation Yrotation Zrotation
								End Site
								{
									OFFSET 0.000000 15.991302 0.000000
								}
							}
						}
						JOINT newVegas:Right_CapeA
						{
							OFFSET -5.115540 -8.608795 -10.395824
							CHANNELS 3 Xrotation Yrotation Zrotation
							JOINT newVegas:Right_CapeA1
							{
								OFFSET 0.000000 -8.688499 0.000000
								CHANNELS 3 Xrotation Yrotation Zrotation
								End Site
								{
									OFFSET 0.000000 8.688499 0.000000
								}
							}
						}
						JOINT newVegas:Right_CapeB
						{
							OFFSET -26.118187 -8.608795 -7.079266
							CHANNELS 3 Xrotation Yrotation Zrotation
							JOINT newVegas:Right_CapeB1
							{
								OFFSET 0.000000 -8.688499 0.000000
								CHANNELS 3 Xrotation Yrotation Zrotation
								End Site
								{
									OFFSET 0.000000 8.688499 0.000000
								}
							}
						}
					}
				}
				JOINT newVegas:Left_Collar
				{
					OFFSET 18.625099 8.655502 8.828100
					CHANNELS 3 Xrotation Yrotation Zrotation
					JOINT newVegas:Left_Collar1
					{
						OFFSET 14.783401 10.540405 -1.259500
						CHANNELS 3 Xrotation Yrotation Zrotation
						End Site
						{
							OFFSET 0.000000 18.199875 0.000000
						}
					}
				}
				JOINT newVegas:Collar_Back
				{
					OFFSET 0.000000 15.630707 -20.132601
					CHANNELS 3 Xrotation Yrotation Zrotation
					End Site
					{
						OFFSET 0.000000 22.523010 0.000000
					}
				}
				JOINT newVegas:Left_Peck
				{
					OFFSET 17.239599 -5.132599 25.482599
					CHANNELS 3 Xrotation Yrotation Zrotation
					End Site
					{
						OFFSET 0.000000 22.523010 0.000000
					}
				}
				JOINT newVegas:Right_Peck
				{
					OFFSET -17.239599 -5.132202 25.482599
					CHANNELS 3 Xrotation Yrotation Zrotation
					End Site
					{
						OFFSET 0.000000 22.523010 0.000000
					}
				}
				JOINT newVegas:Right_Collar
				{
					OFFSET -18.625099 8.655792 8.828100
					CHANNELS 3 Xrotation Yrotation Zrotation
					JOINT newVegas:Right_Collar1
					{
						OFFSET -14.783401 10.539993 -1.259500
						CHANNELS 3 Xrotation Yrotation Zrotation
						End Site
						{
							OFFSET 0.000000 18.199631 0.000000
						}
					}
				}
			}
		}
		JOINT newVegas:Belly
		{
			OFFSET 0.000000 -6.540398 9.014299
			CHANNELS 3 Xrotation Yrotation Zrotation
			End Site
			{
				OFFSET 0.000000 11.566666 0.000000
			}
		}
	}
	JOINT newVegas:ElvisFacialAnim_Joint
	{
		OFFSET 1.000000 -95.330101 -8.825800
		CHANNELS 3 Xrotation Yrotation Zrotation
		End Site
		{
			OFFSET 0.000000 35.315800 0.000000
		}
	}
}
MOTION
Frames: 4
Frame Time: 0.033333
-0.996707 95.297348 4.214139 1.751373 -13.755915 -1.846713 -0.000000 -0.000000 -0.000000 -4.215191 8.623281 2.590331 19.966796 -0.080754 -0.723118 -17.932889 2.869726 0.745843 -0.000000 -0.000000 -0.000000 0.000001 0.000001 -0.000000 -8.477653 11.248778 -0.566981 8.142514 -0.100641 0.167409 -0.659960 -3.693698 4.011766 -0.000000 -0.000000 -0.000000 -0.000000 -0.000000 -0.000001 -0.943925 0.626717 0.161605 -1.889745 1.231594 0.332799 -1.889746 1.231595 0.332799 0.538605 -0.169672 -0.249000 0.538570 -0.169676 -0.248995 -0.000000 -0.000001 0.000000 0.538872 -0.169695 -0.248997 0.538466 -0.169604 -0.249015 0.000000 0.000001 0.000000 -0.000000 -0.000001 -0.000000 -1.585565 -15.737239 -21.515349 19.791586 -21.835273 -57.764809 0.051320 -2.898140 -0.000737 -34.187231 -1.439375 -6.115634 -9.173807 -17.040767 5.874224 3.673350 9.466365 2.242898 0.000002 -0.000001 0.000000 -5.654766 4.314201 -14.807836 0.081449 0.366234 -19.278419 -0.000000 -0.000000 0.000002 -0.206887 2.834262 -15.027535 -0.278576 -1.559303 -19.450033 -0.000003 -0.000001 -0.000005 -0.090046 2.638375 -16.904192 -0.241173 -1.543621 -18.429987 0.000001 -0.000001 0.000003 1.524848 1.869595 -19.138806 -0.351364 -2.225482 -19.121844 0.000002 -0.000003 -0.000000 0.000001 0.000000 0.000000 0.000001 0.000000 0.000000 0.000001 0.000000 0.000000 -0.000000 0.000000 0.000002 -0.000000 0.000000 0.000002 -0.000000 0.000000 0.000002 -0.000002 -0.000000 0.000001 -0.593853 11.462829 18.347633 22.488246 24.602280 50.025330 -0.000057 27.085438 0.007014 -5.446097 0.374552 3.825151 29.524302 -2.925053 -16.126517 -0.047441 -1.896112 -1.888634 -0.000000 -0.000002 -0.000001 -6.897284 -4.372863 7.864551 0.200265 -0.886757 22.607397 0.000000 0.000002 -0.000001 -1.362552 -2.928927 18.303222 -0.288564 1.374442 22.813003 0.000000 0.000000 -0.000000 1.183165 -1.867350 20.280947 -0.579649 2.290421 21.719778 -0.000003 0.000000 0.000003 4.308553 -0.300290 22.500813 -0.725147 3.790212 22.284378 -0.000005 -0.000000 -0.000001 0.000001 0.000002 -0.000001 -0.000000 0.000001 -0.000002 0.000001 0.000002 -0.000001 0.000001 0.000002 0.000001 0.000001 0.000002 0.000001 0.000001 0.000002 0.000001 0.000001 0.000001 0.000001 -0.000000 0.000000 -0.000000 -0.000000 0.000000 -0.000000 -0.000000 0.000000 -0.000000 -0.000000 0.000000 -0.000000 -0.000000 0.000000 -0.000000 -0.000000 0.000000 -0.000000 -0.000000 0.000000 -0.000000 0.000000 -0.000000 -0.000000 -0.000000 -0.000000 -0.000000 
-0.985800 95.294823 4.197959 1.751278 -13.811392 -1.863605 -0.000000 -0.000001 -0.000000 -4.310534 8.692575 2.626670 20.078391 -0.082101 -0.727022 -17.812879 2.843157 0.735019 0.000000 0.000000 -0.000000 0.000002 -0.000000 0.000000 -8.498459 11.323117 -0.551033 8.106399 -0.100988 0.167618 -0.605293 -3.713164 4.026729 0.000000 -0.000000 -0.000000 -0.000000 0.000000 -0.000000 -0.933735 0.625421 0.165999 -1.869479 1.228479 0.346106 -1.869478 1.228482 0.346107 0.543186 -0.171017 -0.248434 0.543191 -0.171010 -0.248433 -0.000000 0.000000 0.000000 0.543189 -0.171013 -0.248434 0.543190 -0.171015 -0.248435 0.000000 -0.000001 -0.000000 -0.000000 0.000000 -0.000000 -1.588962 -15.741633 -21.537813 19.992483 -21.736208 -57.729387 0.050284 -3.293777 -0.000800 -33.407394 -1.362028 -5.469785 -9.173797 -17.040765 5.874253 3.673356 9.466360 2.242899 -0.000000 -0.000000 -0.000003 -5.654764 4.314204 -14.807825 0.081446 0.366234 -19.278404 -0.000001 -0.000002 0.000002 -0.206907 2.834264 -15.027507 -0.278553 -1.559291 -19.450019 -0.000001 0.000000 -0.000000 -0.090047 2.638372 -16.904192 -0.241178 -1.543617 -18.429988 0.000004 -0.000001 -0.000000 1.524844 1.869602 -19.138788 -0.351374 -2.225487 -19.121837 -0.000002 -0.000005 -0.000003 -0.000001 0.000000 0.000000 -0.000001 0.000000 0.000000 -0.000001 0.000000 0.000000 -0.000001 -0.000002 -0.000000 -0.000001 -0.000002 0.000000 -0.000001 -0.000002 -0.000000 -0.000002 -0.000002 -0.000000 -0.596406 11.466878 18.373619 22.560644 24.658322 50.006130 -0.000327 27.092919 0.006886 -5.488045 0.374797 3.666123 29.524305 -2.925052 -16.126522 -0.047442 -1.896113 -1.888629 0.000000 0.000000 0.000001 -6.897286 -4.372863 7.864552 0.200267 -0.886755 22.607400 0.000001 0.000001 -0.000001 -1.362553 -2.928928 18.303220 -0.288566 1.374447 22.813004 -0.000001 -0.000001 -0.000001 1.183165 -1.867350 20.280952 -0.579657 2.290420 21.719776 -0.000000 -0.000003 -0.000004 4.308555 -0.300288 22.500813 -0.725151 3.790212 22.284378 0.000001 0.000003 0.000000 -0.000002 -0.000001 -0.000001 0.000000 -0.000001 0.000001 -0.000002 -0.000001 -0.000001 0.000001 -0.000001 -0.000002 0.000002 0.000000 -0.000002 0.000001 -0.000001 -0.000002 0.000002 -0.000000 -0.000002 -0.000000 -0.000000 0.000000 -0.000000 -0.000000 0.000000 -0.000000 -0.000000 0.000000 -0.000000 -0.000000 0.000000 -0.000000 -0.000000 0.000000 -0.000000 -0.000000 0.000000 -0.000000 -0.000000 0.000000 0.000000 -0.000000 0.000000 -0.000000 -0.000001 -0.000000 
-0.975794 95.277107 4.180254 1.745658 -13.867436 -1.877048 -0.000000 -0.000000 -0.000000 -4.387198 8.805849 2.664874 20.236732 -0.083784 -0.733297 -17.896364 2.785613 0.733931 0.000000 -0.000000 -0.000000 -0.000003 -0.000001 -0.000000 -8.624732 11.352593 -0.529161 8.284783 -0.101851 0.176742 -0.654442 -3.683017 4.038085 0.000000 -0.000000 -0.000000 -0.000000 0.000000 -0.000000 -0.924466 0.625675 0.167356 -1.850998 1.228773 0.351445 -1.850997 1.228773 0.351445 0.548709 -0.173227 -0.246969 0.548712 -0.173229 -0.246966 -0.000000 -0.000000 0.000000 0.548710 -0.173221 -0.246968 0.548710 -0.173236 -0.246967 0.000000 -0.000001 -0.000000 -0.000000 -0.000000 0.000000 -1.589086 -15.742410 -21.536720 20.367916 -21.786690 -57.637801 0.049101 -3.769286 -0.000891 -33.253681 -1.313758 -4.990989 -9.173797 -17.040757 5.874211 3.673357 9.466361 2.242917 0.000003 -0.000003 -0.000001 -5.654758 4.314203 -14.807828 0.081463 0.366235 -19.278402 -0.000001 -0.000001 0.000001 -0.206890 2.834263 -15.027533 -0.278566 -1.559294 -19.450036 0.000000 -0.000002 -0.000004 -0.090030 2.638360 -16.904209 -0.241195 -1.543620 -18.429978 -0.000002 -0.000001 -0.000001 1.524866 1.869605 -19.138810 -0.351374 -2.225480 -19.121845 -0.000001 -0.000008 -0.000002 -0.000005 -0.000000 0.000001 -0.000005 -0.000000 0.000001 -0.000006 -0.000000 0.000001 -0.000002 0.000000 0.000000 -0.000002 0.000000 0.000000 -0.000002 0.000000 0.000000 -0.000004 -0.000000 -0.000000 -0.599718 11.467795 18.416470 22.631091 24.697406 49.974336 -0.000575 27.101084 0.006808 -5.539130 0.360436 3.524351 29.524309 -2.925050 -16.126517 -0.047442 -1.896112 -1.888629 0.000002 -0.000001 0.000001 -6.897283 -4.372860 7.864553 0.200268 -0.886757 22.607407 0.000004 0.000002 -0.000000 -1.362550 -2.928926 18.303220 -0.288564 1.374447 22.813003 -0.000000 0.000000 0.000002 1.183167 -1.867350 20.280947 -0.579655 2.290421 21.719780 0.000002 -0.000001 -0.000002 4.308560 -0.300286 22.500813 -0.725150 3.790209 22.284377 0.000001 -0.000000 -0.000001 -0.000002 -0.000001 0.000001 -0.000002 -0.000001 0.000002 -0.000002 -0.000001 0.000001 0.000001 -0.000001 0.000001 0.000001 -0.000001 0.000001 0.000001 -0.000001 0.000001 0.000001 -0.000001 0.000001 -0.000000 0.000000 0.000000 -0.000000 0.000000 0.000000 -0.000000 0.000000 0.000000 -0.000000 0.000000 0.000000 -0.000000 0.000000 0.000000 -0.000000 0.000000 0.000000 -0.000000 0.000000 0.000000 0.000000 0.000000 -0.000000 -0.000000 -0.000000 -0.000000 
-0.970273 95.260750 4.162611 1.736186 -13.925397 -1.893875 -0.000000 -0.000000 -0.000000 -4.457483 8.923778 2.710615 20.390912 -0.085847 -0.739422 -17.978731 2.725272 0.727854 -0.000000 -0.000000 0.000000 -0.000001 0.000000 -0.000000 -8.737123 11.333796 -0.508527 8.441570 -0.102768 0.184879 -0.693669 -3.603171 4.045699 -0.000000 -0.000000 -0.000000 -0.000000 -0.000000 0.000000 -0.918418 0.626184 0.167801 -1.838951 1.229557 0.354972 -1.838951 1.229555 0.354973 0.554557 -0.175667 -0.246112 0.554559 -0.175665 -0.246105 -0.000000 0.000000 0.000000 0.554628 -0.175659 -0.246112 0.554547 -0.175647 -0.246117 -0.000000 0.000000 0.000000 -0.000000 0.000000 0.000000 -1.589838 -15.747052 -21.536432 20.680696 -21.840157 -57.562977 0.048251 -4.111076 -0.000918 -33.232767 -1.386305 -4.796324 -9.173799 -17.040760 5.874218 3.673353 9.466358 2.242918 0.000000 0.000003 -0.000003 -5.654758 4.314196 -14.807826 0.081449 0.366240 -19.278434 -0.000000 -0.000001 -0.000001 -0.206893 2.834252 -15.027535 -0.278572 -1.559303 -19.450041 -0.000001 -0.000000 -0.000001 -0.090034 2.638359 -16.904203 -0.241186 -1.543617 -18.429969 -0.000000 -0.000000 -0.000003 1.524853 1.869605 -19.138820 -0.351362 -2.225504 -19.121864 0.000002 -0.000003 0.000002 -0.000002 0.000000 -0.000000 -0.000002 0.000000 -0.000000 -0.000003 0.000000 0.000000 -0.000005 0.000000 -0.000000 -0.000005 0.000000 0.000000 -0.000005 0.000000 -0.000000 -0.000006 0.000000 -0.000000 -0.602022 11.464453 18.455975 22.672208 24.702566 49.953647 -0.000729 27.105696 0.006751 -5.587026 0.348049 3.439431 29.524302 -2.925050 -16.126522 -0.047439 -1.896111 -1.888632 0.000001 -0.000000 -0.000000 -6.897282 -4.372861 7.864549 0.200269 -0.886755 22.607402 -0.000001 0.000000 -0.000001 -1.362551 -2.928927 18.303222 -0.288562 1.374448 22.813004 -0.000003 0.000002 0.000003 1.183168 -1.867349 20.280952 -0.579656 2.290417 21.719776 -0.000003 0.000001 0.000002 4.308560 -0.300286 22.500813 -0.725147 3.790206 22.284382 -0.000003 -0.000000 -0.000001 -0.000001 0.000000 0.000001 -0.000001 -0.000001 0.000001 -0.000001 0.000000 0.000001 -0.000002 0.000001 0.000002 -0.000001 0.000001 0.000001 -0.000002 0.000001 0.000002 -0.000002 0.000000 0.000002 -0.000000 -0.000001 0.000000 -0.000000 -0.000001 0.000000 -0.000000 -0.000001 0.000000 -0.000000 -0.000001 0.000000 -0.000000 -0.000001 0.000000 -0.000000 -0.000001 0.000000 -0.000000 -0.000001 0.000000 -0.000000 0.000001 0.000000 -0.000000 -0.000000 -0.000000 
